# Blender v3.0.0 OBJ File: ''
# www.blender.org
mtllib skybox_final.mtl
o Cube
v 29.809444 49.588943 -29.809444
v 29.809444 -10.029947 -29.809444
v 29.809444 49.588943 29.809444
v 29.809444 -10.029947 29.809444
v -29.809444 49.588943 -29.809444
v -29.809444 -10.029947 -29.809444
v -29.809444 49.588943 29.809444
v -29.809444 -10.029947 29.809444
vt 0.498133 0.999994
vt 0.499378 0.666665
vt 0.252097 0.665420
vt 0.247907 0.332090
vt -0.001547 0.335193
vt 0.999373 0.669155
vt 1.000618 0.335825
vt 0.757685 0.334580
vt 0.500623 0.333335
vt 0.501868 0.000006
vt 0.250239 -0.001239
vt 0.760788 0.665011
vt 0.251939 0.998749
vt 0.000469 0.664175
vn 0.0000 -1.0000 0.0000
vn 0.0000 0.0000 -1.0000
vn 1.0000 0.0000 0.0000
vn 0.0000 1.0000 0.0000
vn -1.0000 0.0000 0.0000
vn 0.0000 0.0000 1.0000
usemtl Material
s off
f 5/1/1 1/2/1 3/3/1
f 3/3/2 4/4/2 8/5/2
f 7/6/3 8/7/3 6/8/3
f 2/9/4 6/10/4 8/11/4
f 1/2/5 2/9/5 4/4/5
f 5/12/6 6/8/6 2/9/6
f 5/1/1 3/3/1 7/13/1
f 3/3/2 8/5/2 7/14/2
f 7/6/3 6/8/3 5/12/3
f 2/9/4 8/11/4 4/4/4
f 1/2/5 4/4/5 3/3/5
f 5/12/6 2/9/6 1/2/6
